# xmcd
#
# Track frame offsets: 
#        150
#        20771
#        36996
#        59660
#        88567
#        105899
#
# Disc length: 1503 seconds
#
# Revision: 0
# Processed by: cddbd v1.5.2PL0 Copyright (c) Steve Scherf et al.
# Submitted via: ExactAudioCopyFreeDBPlugin 1.0
#
DISCID=4705dd06
DTITLE=Stompin' Grounds - Stompin' Grounds
DYEAR=2018
DGENRE=Blues
TTITLE0=Hunchback Blues
TTITLE1=Gypsy Lover
TTITLE2=Rattlesnake Shake
TTITLE3=Esmeralda
TTITLE4=Make Some Noise
TTITLE5=Hunchback Blues Pt. II
EXTD=
EXTT0=
EXTT1=
EXTT2=
EXTT3=
EXTT4=
EXTT5=
PLAYORDER=
